<svg width="32" height="32" xmlns="http://www.w3.org/2000/svg" xmlns:xlink="http://www.w3.org/1999/xlink"><defs><path id="a" d="M9 9.137h15.994V22.8H9z"/></defs><g fill="none" fill-rule="evenodd" opacity=".5"><path d="M32 14.133h-3.287c-1.134-5.618-7.314-8.8-12.659-8.8-5.91 0-12.843 3.895-12.843 10.667s6.932 10.667 12.843 10.667c5.26 0 11.328-3.081 12.601-8.534h3.312C30.92 25.961 24.195 32 16.054 32 7.188 32 0 24.837 0 16S7.188 0 16.054 0C24.287 0 31.072 6.176 32 14.133z" fill="#FFF"/><mask id="b" fill="#fff"><use xlink:href="#a"/></mask><path d="M16.13 14.171h-4.195v-3.597h3.237l.958 1.917v1.68zm8.14-4.046l-3.475-.96a.96.96 0 0 0-.91.253l-2.815 4.754-.082-2.11-.96-1.917a.958.958 0 0 0-.856-.53h-3.237c-.53 0-.96.43-.96.959v3.598H9.96c-.53 0-.96.429-.96.958v1.918c0 .53.43.959.96.959h2.22v.958h-1.16c-1.032 0-1.92.791-1.971 1.822a1.92 1.92 0 0 0 1.915 2.013h8.47c1.03 0 1.92-.791 1.97-1.821a1.92 1.92 0 0 0-1.915-2.014h-3.474v-.958h.958a.957.957 0 0 0 .74-.35l3.192-6.91 3.035.609-.796 4.32-1.455-.246-.877-.844-.054 2.119a.585.585 0 0 0 .502.594l1.739.25c.3.044.585-.15.653-.447l1.335-5.924a.958.958 0 0 0-.716-1.053z" fill="#FFF" mask="url(#b)"/></g></svg>