<?xml version="1.0" encoding="UTF-8"?>
<svg width="18px" height="18px" viewBox="0 0 18 18" version="1.1" xmlns="http://www.w3.org/2000/svg" xmlns:xlink="http://www.w3.org/1999/xlink">
    <!-- Generator: Sketch 52.2 (67145) - http://www.bohemiancoding.com/sketch -->
    <title>系统管理</title>
    <desc>Created with Sketch.</desc>
    <g id="系统管理" stroke="none" stroke-width="1" fill="none" fill-rule="evenodd">
        <path d="M4.08444624,0.3806223 C1.82496534,0.3806223 -4.12114787e-13,2.20558764 -4.12114787e-13,4.46506854 C-4.12114787e-13,6.72454944 1.82496534,8.54951478 4.08444624,8.54951478 C6.34392714,8.54951478 8.16889248,6.72454944 8.16889248,4.46506854 C8.16889248,2.20558764 6.34392714,0.3806223 4.08444624,0.3806223 M4.08444624,7.33287122 C2.43328712,7.33287122 1.12974045,6.02932455 1.12974045,4.37816543 C1.12974045,2.81390942 2.43328712,1.42345964 4.08444624,1.42345964 C5.73560536,1.42345964 7.03915203,2.72700631 7.03915203,4.37816543 C7.03915203,6.02932455 5.73560536,7.33287122 4.08444624,7.33287122 M13.3830792,8.46261167 C15.6425601,8.46261167 17.4675254,6.63764633 17.4675254,4.37816543 C17.4675254,2.11868453 15.555657,0.3806223 13.3830792,0.3806223 C11.2105014,0.3806223 9.29863293,2.20558764 9.29863293,4.46506854 C9.29863293,6.72454944 11.0366952,8.46261167 13.3830792,8.46261167 M13.3830792,1.51036275 C15.0342383,1.51036275 16.337785,2.81390942 16.337785,4.46506854 C16.337785,6.02932455 15.0342383,7.41977433 13.3830792,7.41977433 C11.7319201,7.33287122 10.4283734,6.02932455 10.4283734,4.46506854 C10.4283734,2.81390942 11.7319201,1.51036275 13.3830792,1.51036275 M4.08444624,9.59235212 C1.82496534,9.59235212 -4.12114787e-13,11.4173175 -4.12114787e-13,13.6767984 C-4.12114787e-13,15.9362793 1.82496534,17.7612446 4.08444624,17.7612446 C6.34392714,17.7612446 8.16889248,15.9362793 8.16889248,13.6767984 C8.16889248,11.4173175 6.34392714,9.59235212 4.08444624,9.59235212 M4.08444624,16.6315042 C2.43328712,16.6315042 1.12974045,15.3279575 1.12974045,13.6767984 C1.12974045,12.0256392 2.43328712,10.7220926 4.08444624,10.7220926 C5.73560536,10.7220926 7.03915203,12.0256392 7.03915203,13.6767984 C7.03915203,15.3279575 5.73560536,16.6315042 4.08444624,16.6315042 M9.29863293,13.6767984 C9.29863293,15.9362793 11.1235983,17.7612446 13.3830792,17.7612446 C15.6425601,17.7612446 17.4675254,15.9362793 17.4675254,13.6767984 C17.4675254,11.4173175 15.6425601,9.59235212 13.3830792,9.59235212 C11.0366952,9.59235212 9.29863293,11.4173175 9.29863293,13.6767984" id="Shape" fill="#354567" fill-rule="nonzero"></path>
    </g>
</svg>