<?xml version="1.0" encoding="UTF-8"?>
<svg width="568px" height="314px" viewBox="0 0 568 314" version="1.1" xmlns="http://www.w3.org/2000/svg" xmlns:xlink="http://www.w3.org/1999/xlink">
    <!-- Generator: Sketch 52.5 (67469) - http://www.bohemiancoding.com/sketch -->
    <title>轮播图</title>
    <desc>Created with Sketch.</desc>
    <defs>
        <linearGradient x1="108.057754%" y1="74.5203027%" x2="43.8809037%" y2="24.8579694%" id="linearGradient-1">
            <stop stop-color="#DCE3F7" offset="0%"></stop>
            <stop stop-color="#FFFFFF" offset="100%"></stop>
        </linearGradient>
        <linearGradient x1="50%" y1="0%" x2="50%" y2="100%" id="linearGradient-2">
            <stop stop-color="#3B8AEA" offset="0%"></stop>
            <stop stop-color="#717DDA" offset="100%"></stop>
        </linearGradient>
        <linearGradient x1="50%" y1="75.183403%" x2="83.3193105%" y2="0%" id="linearGradient-3">
            <stop stop-color="#367CE3" stop-opacity="0.5" offset="0%"></stop>
            <stop stop-color="#5261ED" offset="100%"></stop>
        </linearGradient>
        <linearGradient x1="41.8883031%" y1="71.1901049%" x2="90.0660154%" y2="24.3354551%" id="linearGradient-4">
            <stop stop-color="#203059" offset="0%"></stop>
            <stop stop-color="#0B1A41" stop-opacity="0.2" offset="100%"></stop>
        </linearGradient>
        <path d="M10.776117,1.15836174 L147.395114,77.9854159 C149.284721,79.0480273 150.454161,81.0473226 150.454161,83.2152147 L150.454161,177.321926 C150.454161,181.075479 149.397873,184.753275 147.406079,187.934771 L143.800949,193.693252 L7.65803869,106.474071 L0.48046765,3.93485087 L4.63286228,1.31418158 C6.49659071,0.137940806 8.85515426,0.0781173082 10.776117,1.15836174 Z" id="path-5"></path>
        <linearGradient x1="24.9091016%" y1="29.9789344%" x2="100%" y2="91.079636%" id="linearGradient-7">
            <stop stop-color="#CBD8EA" stop-opacity="0" offset="0%"></stop>
            <stop stop-color="#AEC5E9" offset="100%"></stop>
        </linearGradient>
        <linearGradient x1="50%" y1="-4.40014457%" x2="100%" y2="91.079636%" id="linearGradient-8">
            <stop stop-color="#CBD8EA" stop-opacity="0" offset="0%"></stop>
            <stop stop-color="#AEC5E9" offset="100%"></stop>
        </linearGradient>
        <linearGradient x1="94.9948179%" y1="92.676843%" x2="7.82247073%" y2="10.7754833%" id="linearGradient-9">
            <stop stop-color="#6F6DCF" offset="0%"></stop>
            <stop stop-color="#BB6CA4" offset="100%"></stop>
        </linearGradient>
        <path d="M104.47368,37.2378727 L172.476771,75.8590643 C174.353956,76.9251799 175.513696,78.9175585 175.513696,81.0763613 L175.513696,140.734548 C175.513696,141.839117 174.618265,142.734548 173.513696,142.734548 C173.167431,142.734548 172.827099,142.644648 172.526004,142.473647 L104.522914,103.852455 C102.645728,102.78634 101.485989,100.793961 101.485989,98.6351582 L101.485989,38.9769717 C101.485989,37.8724022 102.381419,36.9769717 103.485989,36.9769717 C103.832253,36.9769717 104.172586,37.0668714 104.47368,37.2378727 Z" id="path-10"></path>
        <filter x="-10.8%" y="-5.1%" width="121.6%" height="112.1%" filterUnits="objectBoundingBox" id="filter-11">
            <feOffset dx="0" dy="1" in="SourceAlpha" result="shadowOffsetOuter1"></feOffset>
            <feGaussianBlur stdDeviation="2.5" in="shadowOffsetOuter1" result="shadowBlurOuter1"></feGaussianBlur>
            <feColorMatrix values="0 0 0 0 0.105882353   0 0 0 0 0.0549019608   0 0 0 0 0.721568627  0 0 0 0.3 0" type="matrix" in="shadowBlurOuter1"></feColorMatrix>
        </filter>
        <linearGradient x1="73.992006%" y1="100%" x2="21.8713068%" y2="20.5825315%" id="linearGradient-12">
            <stop stop-color="#C170AC" offset="0%"></stop>
            <stop stop-color="#4737C3" offset="100%"></stop>
        </linearGradient>
        <linearGradient x1="100%" y1="62.3257689%" x2="50%" y2="30.9157243%" id="linearGradient-13">
            <stop stop-color="#EBB07F" offset="0%"></stop>
            <stop stop-color="#EB767E" offset="100%"></stop>
        </linearGradient>
        <path d="M184.907309,82.303828 L215.94499,100.509808 C217.781228,101.586902 218.909248,103.556334 218.909248,105.68516 L218.909248,165.343358 C218.909248,166.447927 218.013818,167.343358 216.909248,167.343358 C216.5535,167.343358 216.204189,167.248469 215.897335,167.068476 L184.859654,148.862496 C183.023416,147.785401 181.895395,145.815969 181.895395,143.687143 L181.895395,84.0289455 C181.895395,82.924376 182.790825,82.0289455 183.895395,82.0289455 C184.251144,82.0289455 184.600454,82.1238344 184.907309,82.303828 Z" id="path-14"></path>
        <filter x="-21.6%" y="-7.9%" width="143.2%" height="118.1%" filterUnits="objectBoundingBox" id="filter-15">
            <feOffset dx="0" dy="1" in="SourceAlpha" result="shadowOffsetOuter1"></feOffset>
            <feGaussianBlur stdDeviation="2.5" in="shadowOffsetOuter1" result="shadowBlurOuter1"></feGaussianBlur>
            <feColorMatrix values="0 0 0 0 0.105882353   0 0 0 0 0.0549019608   0 0 0 0 0.721568627  0 0 0 0.3 0" type="matrix" in="shadowBlurOuter1"></feColorMatrix>
        </filter>
        <linearGradient x1="50%" y1="0%" x2="50%" y2="100%" id="linearGradient-16">
            <stop stop-color="#3B8AEA" offset="0%"></stop>
            <stop stop-color="#81DF98" offset="100%"></stop>
        </linearGradient>
        <linearGradient x1="0%" y1="100%" x2="94.9948192%" y2="0%" id="linearGradient-17">
            <stop stop-color="#DC5D3F" offset="0%"></stop>
            <stop stop-color="#FBA26B" offset="100%"></stop>
        </linearGradient>
        <linearGradient x1="41.8883031%" y1="71.1901049%" x2="90.405619%" y2="24.0051777%" id="linearGradient-18">
            <stop stop-color="#203059" offset="0%"></stop>
            <stop stop-color="#0B1A41" stop-opacity="0.2" offset="99.3000361%"></stop>
        </linearGradient>
        <linearGradient x1="-1.32053807%" y1="37.7713986%" x2="100%" y2="58.013353%" id="linearGradient-19">
            <stop stop-color="#DEE7F6" offset="0%"></stop>
            <stop stop-color="#D4E5FF" offset="59.1587635%"></stop>
            <stop stop-color="#87A0C6" offset="100%"></stop>
        </linearGradient>
        <path d="M0.0226039512,40.252605 L0.0226039512,47.4158042 C0.0226039512,49.574607 1.18234342,51.5669856 3.05952935,52.6331012 L139.504274,130.124559 C141.042254,130.998029 142.927267,130.993963 144.461465,130.113866 L225.053967,83.8817824 C226.91851,82.8121831 228.068413,80.8268657 228.068413,78.6773166 L228.068413,73.4842483 L83.4165711,3.28219279e-14 L0.0226039512,40.252605 Z" id="path-20"></path>
        <linearGradient x1="24.9091016%" y1="29.9789344%" x2="100%" y2="91.079636%" id="linearGradient-22">
            <stop stop-color="#CBD8EA" stop-opacity="0" offset="0%"></stop>
            <stop stop-color="#8BA6D0" offset="100%"></stop>
        </linearGradient>
        <linearGradient x1="92.0198801%" y1="54.7381743%" x2="15.1403916%" y2="37.125%" id="linearGradient-23">
            <stop stop-color="#DCE3F7" offset="0%"></stop>
            <stop stop-color="#FFFFFF" offset="100%"></stop>
        </linearGradient>
        <linearGradient x1="69.3571143%" y1="23.8143921%" x2="22.195575%" y2="89.5131611%" id="linearGradient-24">
            <stop stop-color="#CBD5F0" offset="0%"></stop>
            <stop stop-color="#DBEAFF" stop-opacity="0.2" offset="100%"></stop>
        </linearGradient>
        <linearGradient x1="86.6532867%" y1="70.2809908%" x2="20.8734751%" y2="-21.1204439%" id="linearGradient-25">
            <stop stop-color="#5189B4" stop-opacity="0" offset="0%"></stop>
            <stop stop-color="#0C3A9D" stop-opacity="0.735733696" offset="100%"></stop>
        </linearGradient>
        <linearGradient x1="86.6532867%" y1="70.2809908%" x2="20.8734751%" y2="-21.1204439%" id="linearGradient-26">
            <stop stop-color="#4B9FDF" stop-opacity="0" offset="0%"></stop>
            <stop stop-color="#0C3A9D" stop-opacity="0.735733696" offset="100%"></stop>
        </linearGradient>
        <path d="M0.575566838,0.289890038 C2.16913832,0.557054105 3.19843949,1.18739017 3.66347035,2.18089824 C4.69830383,4.39175242 5.75917667,6.53817477 9.01358733,7.00697927 C12.267998,7.47578378 16.8437192,-0.000404716607 19.2584182,1.24594161 C20.8682176,2.07683916 20.6824546,3.71504679 18.7011292,6.1605645 C14.9619266,10.1702215 11.5243528,11.534509 8.38840771,10.253427 C5.25246261,8.97234498 2.64818232,5.65116599 0.575566838,0.289890038 Z" id="path-27"></path>
        <linearGradient x1="76.8017084%" y1="15.3213284%" x2="28.8263628%" y2="92.3686408%" id="linearGradient-29">
            <stop stop-color="#F4AC86" offset="0%"></stop>
            <stop stop-color="#FACAAC" offset="100%"></stop>
        </linearGradient>
        <path d="M0.627587352,28.8740269 C-0.86666526,29.7282661 1.85071507,31.0317607 5.32116138,29.2919401 C5.41313481,29.2458315 5.31292637,30.3273123 6.00274535,30.3273123 C6.69256432,30.3273123 7.09947231,27.9909064 6.84219708,27.011936 C6.58492184,26.0329657 6.51392406,22.8816576 8.65058472,13.0249735 C11.8475584,-1.72306784 5.43871917,0.0729896612 4.76481533,0.0729896612 C4.09091149,0.0729896612 4.65608079,1.42601417 4.76481533,14.2189751 C4.87354987,27.011936 2.12183997,28.0197877 0.627587352,28.8740269 Z" id="path-30"></path>
        <path d="M3.11276985,26.0616012 C1.81550542,26.8023707 4.17851109,27.9394199 7.1917763,26.4312743 C7.27163355,26.3913056 7.18601911,27.3315336 7.78543155,27.3324584 C8.38484398,27.3333831 8.73526731,25.3023916 8.51038777,24.4508186 C8.28550823,23.5992455 8.21955859,20.8590448 10.0628778,12.2913872 C12.82094,-0.527951171 7.2544588,1.02515416 6.66887569,1.02425076 C6.08329258,1.02334737 6.57621935,2.20057835 6.68798379,13.3243789 C6.79974823,24.4481795 4.41003429,25.3208316 3.11276985,26.0616012 Z" id="path-32"></path>
        <linearGradient x1="100%" y1="88.8391181%" x2="50%" y2="34.9819955%" id="linearGradient-34">
            <stop stop-color="#DB7BBA" offset="0%"></stop>
            <stop stop-color="#9446B4" offset="100%"></stop>
        </linearGradient>
        <linearGradient x1="10.6953981%" y1="137.371585%" x2="124.356222%" y2="24.8204022%" id="linearGradient-35">
            <stop stop-color="#828DFF" offset="0%"></stop>
            <stop stop-color="#0092FF" stop-opacity="0" offset="100%"></stop>
        </linearGradient>
        <linearGradient x1="10.6953981%" y1="137.371585%" x2="124.356222%" y2="24.8204022%" id="linearGradient-36">
            <stop stop-color="#FF82D7" offset="0%"></stop>
            <stop stop-color="#0092FF" stop-opacity="0" offset="100%"></stop>
        </linearGradient>
        <linearGradient x1="100%" y1="0%" x2="0%" y2="100%" id="linearGradient-37">
            <stop stop-color="#2DBDE2" stop-opacity="0.1" offset="0%"></stop>
            <stop stop-color="#2DBDE2" offset="100%"></stop>
        </linearGradient>
        <linearGradient x1="97.1693442%" y1="44.1106921%" x2="39.8286232%" y2="94.7804033%" id="linearGradient-38">
            <stop stop-color="#AFCCD4" offset="0%"></stop>
            <stop stop-color="#A1C9D5" offset="100%"></stop>
        </linearGradient>
        <path d="M0.109269739,45.7732384 L81.4593467,0.444130556 L126.144325,26.2396214 L127.755502,27.251158 L127.755502,31.7331834 C127.755502,33.7647565 126.689219,35.6472575 124.946799,36.6918916 L52.6864034,80.0141976 C49.0731068,82.1804789 44.5675727,82.2101703 40.9260396,80.0916982 L2.98358443,58.0185688 C1.2040472,56.9833181 0.109269739,55.0798713 0.109269739,53.0211103 L0.109269739,45.7732384 Z" id="path-39"></path>
        <linearGradient x1="7.18001601%" y1="83.4249909%" x2="93.3858325%" y2="15.3164262%" id="linearGradient-41">
            <stop stop-color="#1F57B6" offset="0%"></stop>
            <stop stop-color="#313DB2" offset="100%"></stop>
        </linearGradient>
        <linearGradient x1="-1.32053807%" y1="37.7713986%" x2="100%" y2="58.013353%" id="linearGradient-42">
            <stop stop-color="#FFFFFF" offset="0%"></stop>
            <stop stop-color="#D4E5FF" offset="59.1587635%"></stop>
            <stop stop-color="#87A0C6" offset="100%"></stop>
        </linearGradient>
        <linearGradient x1="-40.1816581%" y1="-6.7892191%" x2="94.4186955%" y2="64.7909369%" id="linearGradient-43">
            <stop stop-color="#CBD8EA" stop-opacity="0" offset="0%"></stop>
            <stop stop-color="#8BA6D0" offset="100%"></stop>
        </linearGradient>
        <linearGradient x1="0%" y1="55.9218717%" x2="67.6630646%" y2="78.8165971%" id="linearGradient-44">
            <stop stop-color="#FFFFFF" offset="0%"></stop>
            <stop stop-color="#D1ECF9" offset="100%"></stop>
        </linearGradient>
        <path d="M4.07443316,43.3373008 L75.1106247,2.34534708 C78.6483458,0.303879271 83.0006402,0.280246753 86.560322,2.28317638 L123.979623,23.3379312 C126.762438,24.9037407 127.749016,28.4289978 126.183207,31.2118132 C125.678629,32.1085684 124.943869,32.8544162 124.054772,33.3723689 L52.774791,74.8972445 C49.1805674,76.9910959 44.7386804,76.9930914 41.1425769,74.9024701 L4.05832419,53.3432658 C1.29782976,51.738432 0.360981736,48.1996342 1.96581557,45.4391398 C2.47315202,44.5664641 3.20012845,43.8418247 4.07443316,43.3373008 Z" id="path-45"></path>
        <linearGradient x1="50%" y1="0%" x2="50%" y2="96.8727421%" id="linearGradient-47">
            <stop stop-color="#ABC9F5" offset="0%"></stop>
            <stop stop-color="#DBEAFF" stop-opacity="0.2" offset="100%"></stop>
        </linearGradient>
        <linearGradient x1="71.9531433%" y1="31.1537684%" x2="20.9262588%" y2="93.6225951%" id="linearGradient-48">
            <stop stop-color="#2DBDE2" offset="0%"></stop>
            <stop stop-color="#5976E7" offset="100%"></stop>
        </linearGradient>
        <polygon id="path-49" points="0.174853782 50.886405 81.5055725 0.511734884 154.075982 42.3468021 71.8923274 93.1182128"></polygon>
        <linearGradient x1="100%" y1="156.438278%" x2="10.8915062%" y2="-40.4499658%" id="linearGradient-51">
            <stop stop-color="#FFFFFF" stop-opacity="0" offset="0%"></stop>
            <stop stop-color="#FFFFFF" offset="100%"></stop>
        </linearGradient>
        <linearGradient x1="50%" y1="91.1845733%" x2="83.3193105%" y2="0%" id="linearGradient-52">
            <stop stop-color="#367CE3" stop-opacity="0.5" offset="0%"></stop>
            <stop stop-color="#4957DA" offset="100%"></stop>
        </linearGradient>
    </defs>
    <g id="郫都区审计项目-" stroke="none" stroke-width="1" fill="none" fill-rule="evenodd">
        <g id="01-04登录页" transform="translate(-224.000000, -136.000000)">
            <g id="Group34Copy-2" transform="translate(224.000000, 136.000000)">
                <g id="Group34Copy" transform="translate(10.022624, 22.026756)">
                    <g id="Group33" transform="translate(0.000000, 99.331104)">
                        <g id="Group32">
                            <path d="M11.1530781,38.5491891 L62.0623969,9.46397946 C63.6161101,8.57632129 65.5952326,9.11626554 66.4828908,10.6699787 C66.7625481,11.159477 66.9096442,11.7134735 66.9096442,12.277226 L66.9096442,88.8380846 C66.9096442,91.6008883 65.4291275,94.1518309 63.0302238,95.5223584 L12.9767093,124.118635 C11.4229962,125.006293 9.44387368,124.466349 8.5562155,122.912636 C8.27655821,122.423137 8.12946204,121.869141 8.12946204,121.305388 L8.12946204,43.7589049 C8.12946204,41.6055787 9.28337517,39.6173767 11.1530781,38.5491891 Z" id="CombinedShape" fill="url(#linearGradient-1)"></path>
                            <polygon id="CombinedShape" fill="url(#linearGradient-2)" opacity="0.100000001" points="16.2589241 45.2458874 61.0716864 19.0497303 61.0716864 65.4366839 16.2589241 90.8211953"></polygon>
                            <g id="Group28" transform="translate(16.258924, 32.465829)">
                                <path d="M43.7708952,39.4874247 C43.935622,39.3890813 44.1238951,39.3371559 44.3157448,39.3371559 C44.9027691,39.3371559 45.3786463,39.8130331 45.3786463,40.4000573 C45.3786463,41.561347 44.7680063,42.6370888 43.7708952,43.2323728 L1.6077511,68.4041372 C1.44302427,68.5024805 1.25475124,68.554406 1.06290145,68.554406 C0.47587719,68.554406 0,68.0785288 0,67.4915045 C0,66.3302149 0.610639973,65.2544731 1.6077511,64.659189 L43.7708952,39.4874247 Z M43.7708952,45.1689448 C43.935622,45.0706014 44.1238951,45.018676 44.3157448,45.018676 C44.9027691,45.018676 45.3786463,45.4945532 45.3786463,46.0815774 C45.3786463,47.2428671 44.7680063,48.3186089 43.7708952,48.9138929 L1.6077511,74.0856573 C1.44302427,74.1840006 1.25475124,74.2359261 1.06290145,74.2359261 C0.47587719,74.2359261 0,73.7600489 0,73.1730246 C0,72.011735 0.610639973,70.9359932 1.6077511,70.3407091 L43.7708952,45.1689448 Z M15.055386,68.3983881 C15.2195383,68.3047982 15.4052375,68.2555797 15.5941953,68.2555797 C16.1950012,68.2555797 16.6820507,68.7426291 16.6820507,69.343435 C16.6820507,70.5011507 16.0611223,71.5699254 15.055386,72.1433362 L1.6266647,79.7995917 C1.46251237,79.8931815 1.27681313,79.9424001 1.08785534,79.9424001 C0.487049424,79.9424001 0,79.4553506 0,78.8545447 C0,77.6968291 0.620928354,76.6280544 1.6266647,76.0546435 L15.055386,68.3983881 Z" id="CombinedShape" fill="url(#linearGradient-2)" opacity="0.200000003"></path>
                                <g id="Group29" fill="url(#linearGradient-3)">
                                    <path d="M0,47.4588254 C6.12074304,45.2312293 10.8586344,40.1835182 14.2136739,32.3156921 C19.2462333,20.513953 31.6264532,2.91474444 45.0243374,0.105780283 C45.0243374,0.105780283 45.0243374,-2.3291569 45.0243374,32.7256617 L0,58.6914085 L0,47.4588254 Z" id="Path6"></path>
                                </g>
                            </g>
                        </g>
                        <path d="M13.1734639,144.219485 L13.3638482,144.344039 C14.9302645,145.368825 16.9378872,145.432844 18.5664121,144.50994 L71.8410331,114.318572 C72.8005043,113.774828 73.1375178,112.556231 72.593774,111.59676 C72.4368612,111.319877 72.2160409,111.08451 71.9497179,110.910275 L71.7593336,110.785722 C70.1929172,109.760936 68.1852945,109.696916 66.5567696,110.619821 L13.2821486,140.811189 C12.3226775,141.354933 11.9856639,142.573529 12.5294077,143.533 C12.6863205,143.809883 12.9071408,144.04525 13.1734639,144.219485 Z" id="Rectangle16" fill="url(#linearGradient-4)" opacity="0.452260068"></path>
                    </g>
                    <g id="Group26" transform="translate(87.196833, 0.000000)">
                        <g id="Rectangle25" transform="translate(87.020804, 0.000000)">
                            <mask id="mask-6" fill="white">
                                <use xlink:href="#path-5"></use>
                            </mask>
                            <use id="Mask" fill="#FFFFFF" xlink:href="#path-5"></use>
                            <polygon fill="url(#linearGradient-7)" mask="url(#mask-6)" points="10.9930834 -10.3396334 156.378132 76.7020031 140.685313 86.3779817 -60.5788104 -18.3549697"></polygon>
                            <polygon fill="url(#linearGradient-8)" mask="url(#mask-6)" points="156.54289 83.3286222 156.54289 191.292427 132.49366 193.856594 137.740477 91.3056289"></polygon>
                        </g>
                        <path d="M90.6514485,4.3086548 L227.784828,82.191211 C229.662014,83.2573266 230.821753,85.2497053 230.821753,87.4085081 L230.821753,193.693252 L86.1699112,111.540714 L86.1699112,6.91730334 C86.1699112,5.26044909 87.513057,3.91730334 89.1699112,3.91730334 C89.6893081,3.91730334 90.1998072,4.05215283 90.6514485,4.3086548 Z" id="Rectangle16" fill="#FFFFFF"></path>
                        <path d="M96.1726889,20.3450981 L224.704086,93.3423055 C225.329814,93.6976773 225.716394,94.3618036 225.716394,95.0814045 L225.716394,180.170111 C225.716394,180.722396 225.268679,181.170111 224.716394,181.170111 C224.543262,181.170111 224.373095,181.125161 224.222548,181.039661 L95.6911516,108.042453 C95.0654229,107.687082 94.6788431,107.022955 94.6788431,106.303354 L94.6788431,21.2146476 C94.6788431,20.6623628 95.1265583,20.2146476 95.6788431,20.2146476 C95.8519754,20.2146476 96.0221418,20.2595974 96.1726889,20.3450981 Z" id="Rectangle16" fill="url(#linearGradient-9)"></path>
                        <g id="Rectangle16">
                            <use fill="black" fill-opacity="1" filter="url(#filter-11)" xlink:href="#path-10"></use>
                            <use fill="#FFFFFF" fill-rule="evenodd" xlink:href="#path-10"></use>
                        </g>
                        <g id="Group27" transform="translate(108.293134, 67.629805)">
                            <path d="M15.3160774,37.8148772 C23.7749133,42.7134124 30.6321548,39.0285643 30.6321548,29.5845386 C30.6321548,20.1405129 23.7749133,8.51357006 15.3160774,3.61503484 C6.85724141,-1.28350039 0,2.40134769 0,11.8453734 C0,21.289399 6.85724141,32.9163419 15.3160774,37.8148772 Z" id="Oval11" fill="url(#linearGradient-12)"></path>
                            <path d="M15.9765737,0.477351516 C21.1410532,3.67066175 25.7664583,8.91770014 29.0099381,14.7893528 L15.3891287,23.0803693 L15.9765737,0.477351516 Z" id="CombinedShape" fill="url(#linearGradient-13)"></path>
                        </g>
                        <path d="M147.537151,88.6144555 C148.623362,89.025762 149.341868,90.0661258 149.341868,91.2276017 L149.341868,91.2643282 C149.341868,92.000389 148.745173,92.5970841 148.009112,92.5970841 C147.847863,92.5970841 147.687951,92.5678218 147.537151,92.5107195 C146.450941,92.099413 145.732434,91.0590492 145.732434,89.8975733 L145.732434,89.8608469 C145.732434,89.124786 146.32913,88.5280909 147.06519,88.5280909 C147.22644,88.5280909 147.386351,88.5573532 147.537151,88.6144555 Z M152.536414,91.6314003 L162.452431,97.1999162 C163.50159,97.7890901 164.151052,98.8986681 164.151052,100.101939 C164.151052,100.731702 163.640528,101.242225 163.010765,101.242225 C162.81521,101.242225 162.622941,101.191933 162.452431,101.09618 L152.536414,95.5276643 C151.487255,94.9384904 150.837793,93.8289124 150.837793,92.6256418 C150.837793,91.995879 151.348317,91.4853554 151.97808,91.4853554 C152.173635,91.4853554 152.365905,91.5356478 152.536414,91.6314003 Z" id="CombinedShape" fill="url(#linearGradient-2)" opacity="0.200000003"></path>
                        <path d="M147.537151,97.058861 C148.623362,97.4701675 149.341868,98.5105313 149.341868,99.6720072 L149.341868,99.7087337 C149.341868,100.444794 148.745173,101.04149 148.009112,101.04149 C147.847863,101.04149 147.687951,101.012227 147.537151,100.955125 C146.450941,100.543819 145.732434,99.5034548 145.732434,98.3419788 L145.732434,98.3052524 C145.732434,97.5691916 146.32913,96.9724964 147.06519,96.9724964 C147.22644,96.9724964 147.386351,97.0017587 147.537151,97.058861 Z M152.536414,100.075806 L162.452431,105.644322 C163.50159,106.233496 164.151052,107.343074 164.151052,108.546344 C164.151052,109.176107 163.640528,109.686631 163.010765,109.686631 C162.81521,109.686631 162.622941,109.636338 162.452431,109.540586 L152.536414,103.97207 C151.487255,103.382896 150.837793,102.273318 150.837793,101.070047 C150.837793,100.440284 151.348317,99.9297609 151.97808,99.9297609 C152.173635,99.9297609 152.365905,99.9800533 152.536414,100.075806 Z" id="CombinedShape" fill="url(#linearGradient-2)" opacity="0.200000003"></path>
                        <path d="M147.537151,105.503267 C148.623362,105.914573 149.341868,106.954937 149.341868,108.116413 L149.341868,108.153139 C149.341868,108.8892 148.745173,109.485895 148.009112,109.485895 C147.847863,109.485895 147.687951,109.456633 147.537151,109.399531 C146.450941,108.988224 145.732434,107.94786 145.732434,106.786384 L145.732434,106.749658 C145.732434,106.013597 146.32913,105.416902 147.06519,105.416902 C147.22644,105.416902 147.386351,105.446164 147.537151,105.503267 Z M152.536414,108.520211 L162.452431,114.088727 C163.50159,114.677901 164.151052,115.787479 164.151052,116.99075 C164.151052,117.620513 163.640528,118.131036 163.010765,118.131036 C162.81521,118.131036 162.622941,118.080744 162.452431,117.984991 L152.536414,112.416475 C151.487255,111.827301 150.837793,110.717723 150.837793,109.514453 C150.837793,108.88469 151.348317,108.374166 151.97808,108.374166 C152.173635,108.374166 152.365905,108.424459 152.536414,108.520211 Z" id="CombinedShape" fill="url(#linearGradient-2)" opacity="0.200000003"></path>
                        <g id="Rectangle16">
                            <use fill="black" fill-opacity="1" filter="url(#filter-15)" xlink:href="#path-14"></use>
                            <use fill="#FFFFFF" fill-rule="evenodd" xlink:href="#path-14"></use>
                        </g>
                        <path d="M188.70254,92.9708352 L188.70254,92.9708352 C190.018617,93.7284338 190.829773,95.1313299 190.829773,96.6498859 L190.829773,143.172928 L186.575307,140.723847 L186.575307,94.2008047 C186.575307,93.4170013 187.210706,92.7816031 187.994509,92.7816031 C188.243017,92.7816031 188.487168,92.8468562 188.70254,92.9708352 Z M204.018618,102.631968 L204.018618,102.631968 C205.334694,103.389567 206.145851,104.792463 206.145851,106.311019 L206.145851,151.98962 L201.891385,149.540539 L201.891385,103.861937 C201.891385,103.078134 202.526783,102.442736 203.310586,102.442736 C203.559094,102.442736 203.803245,102.507989 204.018618,102.631968 Z M196.360579,97.3791813 L196.360579,97.3791813 C197.676655,98.1367799 198.487812,99.539676 198.487812,101.058232 L198.487812,147.581274 L194.233346,145.132193 L194.233346,98.6091508 C194.233346,97.8253474 194.868744,97.1899492 195.652548,97.1899492 C195.901055,97.1899492 196.145207,97.2552023 196.360579,97.3791813 Z M211.676656,107.884755 L211.676656,107.884755 C212.992733,108.642353 213.803889,110.045249 213.803889,111.563805 L213.803889,156.397966 L209.549423,153.948885 L209.549423,109.114724 C209.549423,108.330921 210.184822,107.695522 210.968625,107.695522 C211.217133,107.695522 211.461284,107.760776 211.676656,107.884755 Z" id="CombinedShape" fill="url(#linearGradient-2)" opacity="0.200000003"></path>
                        <path d="M188.70254,122.526254 L188.70254,122.526254 C190.018617,123.283853 190.829773,124.686749 190.829773,126.205305 L190.829773,143.172928 L186.575307,140.723847 L186.575307,123.756224 C186.575307,122.972421 187.210706,122.337022 187.994509,122.337022 C188.243017,122.337022 188.487168,122.402276 188.70254,122.526254 Z M204.018618,111.076373 L204.018618,111.076373 C205.334694,111.833972 206.145851,113.236868 206.145851,114.755424 L206.145851,151.98962 L201.891385,149.540539 L201.891385,112.306343 C201.891385,111.52254 202.526783,110.887141 203.310586,110.887141 C203.559094,110.887141 203.803245,110.952395 204.018618,111.076373 Z M196.360579,131.156803 L196.360579,131.156803 C197.676655,131.914402 198.487812,133.317298 198.487812,134.835854 L198.487812,147.581274 L194.233346,145.132193 L194.233346,132.386773 C194.233346,131.602969 194.868744,130.967571 195.652548,130.967571 C195.901055,130.967571 196.145207,131.032824 196.360579,131.156803 Z M211.676656,128.995768 L211.676656,128.995768 C212.992733,129.753367 213.803889,131.156263 213.803889,132.674819 L213.803889,156.397966 L209.549423,153.948885 L209.549423,130.225738 C209.549423,129.441934 210.184822,128.806536 210.968625,128.806536 C211.217133,128.806536 211.461284,128.871789 211.676656,128.995768 Z" id="CombinedShape" fill="url(#linearGradient-16)"></path>
                        <path d="M190.565288,115.787888 L189.382296,117.795805 L188.193012,117.15456 L186.372709,118.203239 C185.894158,118.478933 185.282721,118.314484 185.007027,117.835933 C184.91956,117.684107 184.873521,117.511964 184.873521,117.336745 L184.873521,114.210253 C184.873521,113.583737 185.208071,113.004906 185.750943,112.692156 L191.304657,109.492654 C191.783208,109.21696 192.394645,109.381409 192.670339,109.85996 C192.757806,110.011786 192.803845,110.183929 192.803845,110.359148 L192.803845,113.48564 C192.803845,114.112156 192.469295,114.690987 191.926423,115.003737 L190.565288,115.787888 Z" id="CombinedShape" fill="url(#linearGradient-17)" transform="translate(188.838683, 113.847947) scale(-1, 1) translate(-188.838683, -113.847947) "></path>
                        <path d="M108.396065,44.0722163 L108.396065,44.0722163 C109.482275,44.4835228 110.200781,45.5238866 110.200781,46.6853625 L110.200781,46.722089 C110.200781,47.4581498 109.604086,48.054845 108.868025,48.054845 C108.706776,48.054845 108.546865,48.0255827 108.396065,47.9684804 L108.396065,47.9684804 C107.309854,47.5571739 106.591348,46.5168101 106.591348,45.3553342 L106.591348,45.3186077 C106.591348,44.5825469 107.188043,43.9858517 107.924104,43.9858517 C108.085353,43.9858517 108.245264,44.015114 108.396065,44.0722163 Z" id="Rectangle7" fill="#F28B8C"></path>
                        <path d="M113.501424,46.7469591 L113.501424,46.7469591 C114.587634,47.1582656 115.306141,48.1986294 115.306141,49.3601053 L115.306141,49.3968318 C115.306141,50.1328926 114.709445,50.7295878 113.973385,50.7295878 C113.812135,50.7295878 113.652224,50.7003255 113.501424,50.6432232 L113.501424,50.6432232 C112.415213,50.2319167 111.696707,49.1915529 111.696707,48.030077 L111.696707,47.9933505 C111.696707,47.2572897 112.293402,46.6605945 113.029463,46.6605945 C113.190712,46.6605945 113.350623,46.6898568 113.501424,46.7469591 Z" id="Rectangle7" fill="#F6D461"></path>
                        <path d="M118.606783,49.9833002 L118.606783,49.9833002 C119.692993,50.3946067 120.4115,51.4349705 120.4115,52.5964464 L120.4115,52.6331728 C120.4115,53.3692337 119.814804,53.9659288 119.078744,53.9659288 C118.917494,53.9659288 118.757583,53.9366665 118.606783,53.8795642 L118.606783,53.8795642 C117.520572,53.4682577 116.802066,52.4278939 116.802066,51.266418 L116.802066,51.2296915 C116.802066,50.4936307 117.398761,49.8969356 118.134822,49.8969356 C118.296071,49.8969356 118.455983,49.9261979 118.606783,49.9833002 Z" id="Rectangle7Copy" fill="#80E4B8"></path>
                        <path d="M4.65766814,198.984242 L139.775967,275.722367 C142.851927,277.469306 146.621953,277.461174 149.690348,275.700982 L226.262744,231.775042 C227.699917,230.950604 228.196638,229.117206 227.3722,227.680032 C227.105165,227.214533 226.718151,226.829185 226.251504,226.564161 L88.6515583,148.416626 C87.1135781,147.543157 85.2285651,147.547223 83.6943674,148.427319 L4.64642823,193.77336 C3.20925467,194.597798 2.71253443,196.431197 3.53697251,197.86837 C3.80400747,198.33387 4.19102091,198.719217 4.65766814,198.984242 Z" id="Rectangle16" fill="url(#linearGradient-18)" opacity="0.452260068"></path>
                        <g id="Rectangle25" transform="translate(2.753340, 119.985120)">
                            <mask id="mask-21" fill="white">
                                <use xlink:href="#path-20"></use>
                            </mask>
                            <use id="Mask" fill="url(#linearGradient-19)" xlink:href="#path-20"></use>
                            <polygon fill="url(#linearGradient-22)" mask="url(#mask-21)" points="35.3784114 57.9636521 142.128201 109.777272 142.128201 135.954929 35.3784114 84.1413092"></polygon>
                        </g>
                        <path d="M4.65766814,163.517738 L142.257614,241.665273 C143.795594,242.538743 145.680607,242.534677 147.214805,241.65458 L230.821753,193.693252 L86.1699112,111.540714 L4.64642823,158.306857 C3.20925467,159.131295 2.71253443,160.964694 3.53697251,162.401867 C3.80400747,162.867367 4.19102091,163.252714 4.65766814,163.517738 Z" id="Rectangle16" fill="url(#linearGradient-23)"></path>
                        <path d="M49.8997752,183.972185 L100.502335,212.699821 C103.535608,214.421844 107.246973,214.438945 110.295986,212.744948 L146.162286,192.818034 C147.610617,192.013357 148.132402,190.186934 147.327726,188.738603 C147.071073,188.276655 146.69695,187.890699 146.243215,187.61979 L97.2827454,158.387234 C94.2369395,156.568692 90.4556641,156.49988 87.3457089,158.206399 L49.9376879,178.733229 C48.4851464,179.530279 47.9537657,181.353934 48.7508159,182.806475 C49.0183508,183.29403 49.4161437,183.697622 49.8997752,183.972185 Z" id="Rectangle16" fill="url(#linearGradient-24)"></path>
                        <g id="Group24" transform="translate(101.000754, 160.101168) scale(-1, 1) translate(-101.000754, -160.101168) translate(78.500754, 120.101168)">
                            <polygon id="Rectangle20" fill="url(#linearGradient-25)" opacity="0.699999988" points="42.1503119 73.0618563 28.5370646 66.2042657 33.2362648 64.2231628 44.0718794 71.7720489"></polygon>
                            <polygon id="Rectangle20" fill="url(#linearGradient-26)" opacity="0.699999988" points="27.6241264 79.7068819 13.0218211 71.5934207 17.7210213 69.6123177 29.545694 78.4170746"></polygon>
                            <g id="Group15" transform="translate(0.522784, 0.591247)">
                                <g id="Oval9" transform="translate(0.000000, 10.642449)">
                                    <mask id="mask-28" fill="white">
                                        <use xlink:href="#path-27"></use>
                                    </mask>
                                    <use id="Mask" fill="#F1B996" xlink:href="#path-27"></use>
                                    <ellipse fill="#E175BA" mask="url(#mask-28)" cx="18.2304111" cy="3.54748297" rx="3.93204945" ry="3.54748297"></ellipse>
                                </g>
                                <g id="Rectangle13" transform="translate(12.153607, 41.150802)">
                                    <mask id="mask-31" fill="white">
                                        <use xlink:href="#path-30"></use>
                                    </mask>
                                    <use id="Mask" fill="url(#linearGradient-29)" xlink:href="#path-30"></use>
                                    <path d="M0.484282491,25.9474775 C1.99725943,26.5163265 3.21773295,26.8541242 4.14570304,26.9608706 C5.07367313,27.067617 6.13392938,26.9209294 7.32647179,26.520808 L9.29393507,31.2178502 L-0.980388982,31.2178502 L0.484282491,25.9474775 Z" fill="#434452" mask="url(#mask-31)"></path>
                                </g>
                                <g id="Rectangle22" transform="translate(22.068736, 38.312816)">
                                    <mask id="mask-33" fill="white">
                                        <use xlink:href="#path-32"></use>
                                    </mask>
                                    <use id="Mask" fill="url(#linearGradient-29)" transform="translate(6.787228, 14.149028) rotate(-12.000000) translate(-6.787228, -14.149028) " xlink:href="#path-32"></use>
                                    <path d="M4.38323266,24.1228842 C6.06822383,24.3747516 7.44378902,24.5006854 8.50992826,24.5006854 C9.57606749,24.5006854 10.4508283,23.8299941 11.1342108,22.4886117 L13.6771677,30.5083536 L4.38323266,30.5083536 L4.38323266,24.1228842 Z" fill="#434452" mask="url(#mask-33)"></path>
                                </g>
                                <path d="M28.1417008,28.9702247 C29.1525566,28.9702247 31.6742664,25.3557112 31.6742664,21.6789257 C31.6742664,18.0021402 29.4256077,12.1043803 28.4147519,12.1043803 C27.8894229,12.1043803 26.9546777,13.8174036 27.0063831,15.0215166 C27.0541709,16.1343981 29.4995231,19.5843804 29.4995231,21.3503867 C29.4995231,25.0271722 27.1308451,28.9702247 28.1417008,28.9702247 Z" id="Oval7" fill="#F1B996"></path>
                                <path d="M16.0224271,45.8276558 C16.0224271,49.0382078 33.8009781,46.9688741 32.4382004,42.4280887 C30.8325748,37.0781328 31.3037811,31.0034534 30.8536615,28.8691473 C30.4464615,26.9383509 28.8553505,25.8785335 26.1597351,25.8785335 C23.4641198,25.8785335 19.7336426,23.9594262 18.7031348,27.9665943 C17.6726271,31.9737624 16.0224271,42.6171038 16.0224271,45.8276558 Z" id="Oval8" fill="url(#linearGradient-34)"></path>
                                <path d="M19.200235,28.6626512 C21.1334445,29.6224951 30.2178153,28.6626512 29.7415985,25.4012744 C29.3468319,22.6977102 28.0282068,25.2482748 28.6863417,19.8573261 C29.04831,16.8923524 29.9588091,9.68350421 25.9153861,9.68350421 C21.8719631,9.68350421 17.2426379,13.6465162 17.2426379,16.6547953 C17.2426379,18.594366 18.4280924,20.0552882 19.200235,22.4769545 C19.8201407,24.4211614 17.2670255,27.7028074 19.200235,28.6626512 Z" id="Oval5" fill="#E175BA"></path>
                                <path d="M25.4183256,19.121721 C26.7661333,19.121721 30.6858334,16.4002976 30.153359,13.080523 C29.6208845,9.76074834 27.7817744,9.68350421 26.4339668,9.68350421 C25.0861591,9.68350421 24.720654,11.0750036 24.720654,13.080523 C24.720654,15.0860424 24.070518,19.121721 25.4183256,19.121721 Z" id="Oval6" fill="#E175BA"></path>
                                <path d="M18.0175751,11.7593335 C20.3402684,11.5741042 19.5879646,16.1813056 19.5879646,18.7670093 C19.5879646,21.8036111 24.4890462,25.9999841 28.1840151,20.3914747 C29.1198676,18.9709655 30.2337631,14.9651178 26.6488871,11.1892006 C24.9999225,9.45236128 27.9324683,8.35365819 26.6488871,3.40069072 C25.9530957,0.715833415 24.119634,0 22.0979225,0 C20.076211,0 18.8187953,0.695209195 18.5670984,1.94337997 C18.0175751,4.66847879 19.3116496,5.12307787 19.0454361,6.70167705 C18.9153015,7.47335279 17.8196822,8.53416882 17.4869855,9.45236128 C16.9612015,10.9034455 17.3274627,11.8143683 18.0175751,11.7593335 Z" id="Oval3" fill="#374558"></path>
                            </g>
                        </g>
                    </g>
                    <path d="M35.0791855,110.208714 C35.6327198,109.837077 36.081448,108.933254 36.081448,108.189969 C36.081448,107.446683 35.6327198,107.145402 35.0791855,107.517039 C34.5256513,107.888675 34.0769231,108.792498 34.0769231,109.535784 C34.0769231,110.279069 34.5256513,110.58035 35.0791855,110.208714 Z" id="Oval10" stroke="#2DBDE2" stroke-width="4" stroke-linecap="round"></path>
                    <g id="Group35" transform="translate(77.174208, 72.240803)" opacity="0.699999988">
                        <path d="M2.17753036,37.2619582 L30.9681037,20.4568295 C31.5141966,20.1380737 32.2152951,20.3223668 32.5340509,20.8684598 C32.6362934,21.0436218 32.6901704,21.2427999 32.6901704,21.4456182 L32.6901704,21.4456182 C32.6901704,22.6803915 32.0345034,23.822296 30.9681037,24.4447562 L2.17753036,41.2498849 C1.63143742,41.5686407 0.930338984,41.3843475 0.611583183,40.8382546 C0.509340694,40.6630926 0.455463618,40.4639144 0.455463618,40.2610962 L0.455463618,40.2610962 C0.455463618,39.0263229 1.11113064,37.8844183 2.17753036,37.2619582 Z" id="CombinedShapeCopy" fill="url(#linearGradient-35)"></path>
                        <path d="M2.1499019,46.3874694 L17.761518,36.7034019 C18.2822582,36.3803807 18.966262,36.5406636 19.2892832,37.0614038 C19.3982299,37.2370361 19.4559563,37.4396067 19.4559563,37.6462854 L19.4559563,37.6462854 C19.4559563,38.8860826 18.8150779,40.0377932 17.761518,40.6913286 L2.1499019,50.3753962 C1.6291617,50.6984174 0.945157927,50.5381345 0.62213671,50.0173943 C0.513189965,49.841762 0.455463618,49.6391913 0.455463618,49.4325126 L0.455463618,49.4325126 C0.455463618,48.1927155 1.09634202,47.0410049 2.1499019,46.3874694 Z" id="CombinedShapeCopy" fill="url(#linearGradient-35)"></path>
                        <path d="M2.1499019,54.7251208 L17.761518,45.0410532 C18.2822582,44.718032 18.966262,44.8783149 19.2892832,45.3990551 C19.3982299,45.5746874 19.4559563,45.7772581 19.4559563,45.9839368 L19.4559563,45.9839368 C19.4559563,47.2237339 18.8150779,48.3754445 17.761518,49.02898 L2.1499019,58.7130475 C1.6291617,59.0360687 0.945157927,58.8757858 0.62213671,58.3550456 C0.513189965,58.1794133 0.455463618,57.9768427 0.455463618,57.7701639 L0.455463618,57.7701639 C0.455463618,56.5303668 1.09634202,55.3786562 2.1499019,54.7251208 Z" id="CombinedShapeCopy" fill="url(#linearGradient-35)"></path>
                        <path d="M2.1704175,27.0471679 L47.3196119,0.265932238 C47.8590289,-0.0540347769 48.5556973,0.12386456 48.8756643,0.66328153 C48.9796779,0.838633157 49.0345658,1.03875311 49.0345658,1.24263306 L49.0345658,1.24263306 C49.0345658,2.4787364 48.3827509,3.62323472 47.3196119,4.25385895 L2.1704175,31.0350946 C1.63100053,31.3550617 0.934332159,31.1771623 0.614365144,30.6377453 C0.510351477,30.4623937 0.455463618,30.2622738 0.455463618,30.0583938 L0.455463618,30.0583938 C0.455463618,28.8222905 1.1072785,27.6777922 2.1704175,27.0471679 Z" id="CombinedShapeCopy" fill="url(#linearGradient-36)"></path>
                    </g>
                    <path d="M37.0837104,107.35786 C37.0837104,107.35786 77.1742081,83.9464883 157.355204,37.1237458" id="Path5" stroke="url(#linearGradient-37)" stroke-width="2" stroke-linecap="round"></path>
                    <g id="Group" transform="translate(291.658371, 143.478261)">
                        <path d="M10.0148837,112.806248 L74.6461817,75.058381 C78.2227837,72.9694689 82.6435018,72.9531011 86.235474,75.0154714 L120.659496,94.7804016 C122.757309,95.9848839 123.481497,98.661923 122.277014,100.759736 C121.895297,101.424563 121.345771,101.977558 120.68336,102.363452 L55.7497314,140.191196 C52.1555077,142.285047 47.7136207,142.287043 44.1175173,140.196421 L10.0224889,120.375025 C7.9312052,119.159242 7.22147185,116.478334 8.43725505,114.387051 C8.81769838,113.732645 9.36124433,113.188006 10.0148837,112.806248 Z" id="Mask" fill="url(#linearGradient-18)" opacity="0.452260068"></path>
                        <g id="Rectangle8" transform="translate(0.633861, 1.815341)">
                            <mask id="mask-40" fill="white">
                                <use xlink:href="#path-39"></use>
                            </mask>
                            <use id="Mask" fill="url(#linearGradient-38)" xlink:href="#path-39"></use>
                            <polygon id="Rectangle29" fill="url(#linearGradient-41)" mask="url(#mask-40)" points="58.4649254 51.6095194 122.309291 30.6738098 121.288353 49.0041939 58.4649254 77.8238784"></polygon>
                            <polygon id="Rectangle28" fill="#1395B8" mask="url(#mask-40)" points="120.572218 22.1183655 133.982121 22.1183655 133.982121 45.0559296 120.572218 45.0559296"></polygon>
                            <polygon fill="url(#linearGradient-42)" mask="url(#mask-40)" points="-6.52765288 46.0496472 59.8267142 66.6778874 59.8267142 85.6159856 43.3176645 90.3038407 -6.52765288 64.9877454"></polygon>
                            <polygon id="Rectangle10" fill="url(#linearGradient-43)" mask="url(#mask-40)" points="-1.69795528 27.1156087 47.0238448 53.2634012 47.0238448 93.5068598 -1.69795528 67.3590673"></polygon>
                        </g>
                        <g id="Rectangle3" transform="translate(0.502764, 0.439666)">
                            <mask id="mask-46" fill="white">
                                <use xlink:href="#path-45"></use>
                            </mask>
                            <use id="Mask" fill="url(#linearGradient-44)" xlink:href="#path-45"></use>
                            <path d="M31.2545192,57.57133 L32.6438316,58.4201077 C33.8225527,59.1402281 34.1943221,60.6795433 33.4742016,61.8582645 C33.255131,62.2168478 32.9492439,62.5144547 32.5847851,62.7236047 L32.5847851,62.7236047 C30.3261772,64.0197404 27.5406132,63.9815209 25.3184163,62.623906 L23.9291039,61.7751283 C22.7503828,61.0550079 22.3786134,59.5156927 23.0987339,58.3369715 C23.3178045,57.9783882 23.6236916,57.6807813 23.9881504,57.4716313 L23.9881504,57.4716313 C26.2467583,56.1754956 29.0323223,56.2137151 31.2545192,57.57133 Z" id="Rectangle4" fill="url(#linearGradient-47)" mask="url(#mask-46)"></path>
                            <g id="Path8" mask="url(#mask-46)">
                                <g transform="translate(-1.820363, -16.383974)">
                                    <mask id="mask-50" fill="white">
                                        <use xlink:href="#path-49"></use>
                                    </mask>
                                    <use id="Mask" stroke="none" fill="url(#linearGradient-48)" fill-rule="evenodd" xlink:href="#path-49"></use>
                                    <path d="M73.6627903,28.5210626 L86.1331463,36.0313607 C86.4678589,36.2329421 86.5757831,36.6676943 86.3742017,37.0024069 C86.3130107,37.1040106 86.2272572,37.1885996 86.1248265,37.2483958 C85.4895567,37.6192486 84.7025431,37.6138684 84.0724029,37.2343652 L71.602047,29.7240671 C71.2673344,29.5224857 71.1594102,29.0877335 71.3609916,28.7530209 C71.4221826,28.6514172 71.507936,28.5668282 71.6103668,28.507032 C72.2456365,28.1361792 73.0326501,28.1415594 73.6627903,28.5210626 Z M68.6797448,31.3515892 L76.9217183,36.3501049 C77.256984,36.5534337 77.36394,36.990051 77.1606111,37.3253168 C77.0992748,37.4264533 77.0136419,37.5106626 76.9114916,37.5702952 C76.2765353,37.940965 75.4896291,37.9343697 74.8609749,37.5531093 L66.6190015,32.5545937 C66.2837357,32.3512648 66.1767798,31.9146476 66.3801086,31.5793818 C66.441445,31.4782453 66.5270778,31.3940359 66.6292282,31.3344034 C67.2641845,30.9637336 68.0510906,30.9703288 68.6797448,31.3515892 Z" id="CombinedShape" stroke="none" fill="url(#linearGradient-51)" fill-rule="evenodd" mask="url(#mask-50)"></path>
                                    <path d="M28.3757987,52.6854313 C38.4551554,53.9530899 55.0125189,46.2851231 65.8225211,46.2547672 C76.6325232,46.2244113 66.1020691,52.7226187 75.8839223,54.7355293 C85.6657755,56.7484399 105.441688,45.9798189 118.972791,48.7642504 C132.503894,51.5486819 103.707533,64.6591908 108.957182,66.9891883 C108.801292,67.0520553 91.1095364,77.5496541 55.8819151,98.4819847 L-10.8625939,62.3980777 L20.9114465,46.9011747 C19.1681101,49.9122401 21.6562276,51.8403256 28.3757987,52.6854313 Z" id="Path8" stroke="none" fill="url(#linearGradient-52)" fill-rule="evenodd" mask="url(#mask-50)"></path>
                                    <path d="M70.1183718,45.7199081 L70.1698522,45.7526308 C70.4798088,45.9496501 70.5713627,46.3606352 70.3743435,46.6705919 C70.3165553,46.7615059 70.2375459,46.8370202 70.144112,46.8906387 L70.144112,46.8906387 C69.557253,47.2274164 68.8320463,47.2110132 68.2610146,46.8480456 L68.2095342,46.8153229 C67.8995776,46.6183037 67.8080237,46.2073185 68.005043,45.8973618 C68.0628311,45.8064478 68.1418405,45.7309335 68.2352744,45.677315 L68.2352744,45.677315 C68.8221334,45.3405373 69.5473401,45.3569405 70.1183718,45.7199081 Z" id="Rectangle4" stroke="#58DDFF" stroke-width="1" fill="none" mask="url(#mask-50)"></path>
                                </g>
                            </g>
                        </g>
                    </g>
                </g>
            </g>
        </g>
    </g>
</svg>