<?xml version="1.0" encoding="UTF-8"?>
<svg width="227px" height="139px" viewBox="0 0 227 139" version="1.1" xmlns="http://www.w3.org/2000/svg" xmlns:xlink="http://www.w3.org/1999/xlink">
    <!-- Generator: Sketch 52.5 (67469) - http://www.bohemiancoding.com/sketch -->
    <title>LOGO</title>
    <desc>Created with Sketch.</desc>
    <defs>
        <linearGradient x1="75.7412997%" y1="87.1275436%" x2="8.54048295%" y2="-18.1458939%" id="linearGradient-1">
            <stop stop-color="#0BBA6B" offset="0%"></stop>
            <stop stop-color="#74EAB5" offset="100%"></stop>
        </linearGradient>
        <polygon id="path-2" points="24 24.3922857 69.9826909 24.3922857 69.9826909 63.4285714 24 63.4285714"></polygon>
        <linearGradient x1="4.21883776%" y1="0%" x2="100%" y2="81.3622384%" id="linearGradient-4">
            <stop stop-color="#03127F" offset="0%"></stop>
            <stop stop-color="#00D884" offset="100%"></stop>
        </linearGradient>
        <path d="M28.325,114.595 C29.015,115.12 29.6,115.645 30.08,116.185 L29.39,116.875 L31.19,116.875 L31.19,118.24 L26.72,118.24 C26.825,120.01 27.005,121.39 27.26,122.365 C27.32,122.62 27.395,122.875 27.47,123.115 C28.1,122.005 28.625,120.745 29.045,119.32 L30.35,119.875 C29.75,121.795 29,123.445 28.07,124.795 C28.235,125.155 28.4,125.455 28.565,125.71 C29.015,126.37 29.375,126.715 29.615,126.715 C29.81,126.715 30.005,125.98 30.2,124.51 L31.49,125.2 C31.115,127.27 30.56,128.32 29.84,128.32 C29.18,128.32 28.49,127.87 27.77,126.985 C27.53,126.685 27.32,126.355 27.125,125.995 C26.12,127.12 24.95,127.975 23.63,128.56 L22.82,127.36 C24.26,126.715 25.475,125.785 26.465,124.555 C26.255,124.015 26.075,123.43 25.91,122.8 C25.58,121.585 25.37,120.07 25.265,118.24 L20.435,118.24 L20.435,120.43 L24.11,120.43 C24.08,123.145 23.945,124.855 23.705,125.575 C23.465,126.205 22.955,126.52 22.175,126.535 C21.815,126.535 21.395,126.505 20.93,126.46 L20.495,125.17 C21.095,125.2 21.59,125.23 22.01,125.23 C22.28,125.215 22.445,125.05 22.535,124.72 C22.625,124.33 22.67,123.34 22.7,121.78 L20.435,121.78 L20.435,121.87 C20.375,124.645 19.76,126.865 18.62,128.545 L17.54,127.585 C18.47,126.22 18.965,124.315 19.01,121.87 L19.01,116.875 L25.19,116.875 C25.16,116.17 25.16,115.435 25.16,114.67 L26.6,114.67 C26.6,115.45 26.63,116.185 26.66,116.875 L28.97,116.875 C28.565,116.425 28.055,115.945 27.425,115.465 L28.325,114.595 Z M41.91,115.255 L46.995,115.255 L46.995,116.335 C46.545,117.865 46.035,119.275 45.495,120.595 C46.605,122.08 47.16,123.295 47.175,124.225 C47.175,125.125 46.98,125.755 46.59,126.1 C46.17,126.46 45.345,126.64 44.1,126.64 L43.68,125.2 C44.19,125.26 44.625,125.29 44.97,125.29 C45.33,125.275 45.555,125.2 45.645,125.065 C45.735,124.93 45.795,124.645 45.795,124.225 C45.795,123.295 45.21,122.095 44.04,120.595 C44.52,119.47 45,118.135 45.48,116.575 L43.29,116.575 L43.29,128.53 L41.91,128.53 L41.91,115.255 Z M34.605,116.335 L36.645,116.335 L36.645,114.73 L38.025,114.73 L38.025,116.335 L39.51,116.335 L39.51,117.535 C39.885,116.905 40.215,116.23 40.485,115.54 L41.685,116.065 C41.235,117.235 40.68,118.285 40.02,119.23 L41.385,119.23 L41.385,120.52 L38.97,120.52 C38.58,120.94 38.16,121.315 37.74,121.675 L40.755,121.675 L40.755,128.53 L39.405,128.53 L39.405,127.99 L36.66,127.99 L36.66,128.545 L35.295,128.545 L35.295,123.295 C34.935,123.475 34.575,123.655 34.215,123.82 L33.465,122.725 C34.815,122.14 36.015,121.405 37.035,120.52 L33.915,120.52 L33.915,119.23 L36.645,119.23 L36.645,117.61 L34.605,117.61 L34.605,116.335 Z M38.31,119.23 C38.73,118.72 39.12,118.18 39.465,117.61 L38.025,117.61 L38.025,119.23 L38.31,119.23 Z M36.66,125.41 L36.66,126.73 L39.405,126.73 L39.405,125.41 L36.66,125.41 Z M39.405,124.195 L39.405,122.89 L36.66,122.89 L36.66,124.195 L39.405,124.195 Z M49.81,116.305 L55.72,116.305 C55.495,115.765 55.255,115.255 55,114.805 L56.53,114.565 C56.755,115.09 56.965,115.675 57.175,116.305 L63.19,116.305 L63.19,117.67 L57.22,117.67 L57.22,119.305 L62.095,119.305 L62.095,124.87 C62.095,125.83 61.585,126.325 60.595,126.325 L59.08,126.325 L58.72,124.975 L60.145,125.05 C60.505,125.05 60.685,124.87 60.685,124.54 L60.685,120.67 L57.22,120.67 L57.22,128.53 L55.78,128.53 L55.78,120.67 L52.495,120.67 L52.495,126.43 L51.1,126.43 L51.1,119.305 L55.78,119.305 L55.78,117.67 L49.81,117.67 L49.81,116.305 Z M66.47,115.975 L68.705,115.975 C68.9,115.54 69.05,115.09 69.155,114.625 L70.535,114.82 C70.415,115.225 70.28,115.615 70.115,115.975 L73.115,115.975 L73.115,122.53 L69.725,122.53 C69.665,122.635 69.62,122.725 69.575,122.815 C69.14,123.475 68.495,124.015 67.625,124.435 L70.04,124.435 L70.04,122.995 L71.42,122.995 L71.42,124.435 L73.565,124.435 L73.565,125.755 L71.42,125.755 L71.42,128.5 L70.04,128.5 L70.04,125.755 L65.795,125.755 L65.795,124.435 L66.92,124.435 L66.44,123.715 C67.22,123.385 67.805,122.995 68.21,122.53 L66.47,122.53 L66.47,115.975 Z M71.78,121.315 L71.78,119.83 L70.4,119.83 C70.355,120.37 70.28,120.865 70.175,121.315 L71.78,121.315 Z M68.84,121.315 C68.975,120.865 69.065,120.37 69.095,119.83 L67.76,119.83 L67.76,121.315 L68.84,121.315 Z M67.76,118.645 L69.125,118.645 L69.125,117.205 L67.76,117.205 L67.76,118.645 Z M70.43,117.205 L70.43,118.645 L71.78,118.645 L71.78,117.205 L70.43,117.205 Z M74.03,115.255 L78.89,115.255 L78.89,116.335 C78.455,117.865 77.975,119.275 77.465,120.595 C78.515,122.095 79.055,123.31 79.07,124.255 C79.07,125.14 78.875,125.755 78.515,126.085 C78.125,126.43 77.33,126.61 76.145,126.61 L75.74,125.185 C76.25,125.245 76.67,125.275 77.03,125.275 C77.33,125.26 77.51,125.185 77.6,125.05 C77.675,124.93 77.72,124.66 77.735,124.255 C77.72,123.325 77.15,122.095 76.025,120.595 C76.49,119.47 76.94,118.135 77.39,116.575 L75.41,116.575 L75.41,128.53 L74.03,128.53 L74.03,115.255 Z M89.91,115.255 L94.995,115.255 L94.995,116.335 C94.545,117.865 94.035,119.275 93.495,120.595 C94.605,122.08 95.16,123.295 95.175,124.225 C95.175,125.125 94.98,125.755 94.59,126.1 C94.17,126.46 93.345,126.64 92.1,126.64 L91.68,125.2 C92.19,125.26 92.625,125.29 92.97,125.29 C93.33,125.275 93.555,125.2 93.645,125.065 C93.735,124.93 93.795,124.645 93.795,124.225 C93.795,123.295 93.21,122.095 92.04,120.595 C92.52,119.47 93,118.135 93.48,116.575 L91.29,116.575 L91.29,128.53 L89.91,128.53 L89.91,115.255 Z M82.605,116.335 L84.645,116.335 L84.645,114.73 L86.025,114.73 L86.025,116.335 L87.51,116.335 L87.51,117.535 C87.885,116.905 88.215,116.23 88.485,115.54 L89.685,116.065 C89.235,117.235 88.68,118.285 88.02,119.23 L89.385,119.23 L89.385,120.52 L86.97,120.52 C86.58,120.94 86.16,121.315 85.74,121.675 L88.755,121.675 L88.755,128.53 L87.405,128.53 L87.405,127.99 L84.66,127.99 L84.66,128.545 L83.295,128.545 L83.295,123.295 C82.935,123.475 82.575,123.655 82.215,123.82 L81.465,122.725 C82.815,122.14 84.015,121.405 85.035,120.52 L81.915,120.52 L81.915,119.23 L84.645,119.23 L84.645,117.61 L82.605,117.61 L82.605,116.335 Z M86.31,119.23 C86.73,118.72 87.12,118.18 87.465,117.61 L86.025,117.61 L86.025,119.23 L86.31,119.23 Z M84.66,125.41 L84.66,126.73 L87.405,126.73 L87.405,125.41 L84.66,125.41 Z M87.405,124.195 L87.405,122.89 L84.66,122.89 L84.66,124.195 L87.405,124.195 Z M102.13,117.655 C103.45,118.66 104.695,119.665 105.835,120.67 C106.615,119.635 107.29,118.465 107.86,117.145 L109.15,117.835 C108.52,119.29 107.785,120.565 106.945,121.66 C108.025,122.65 109.03,123.655 109.93,124.645 L108.82,125.755 C108.01,124.795 107.065,123.79 105.985,122.77 C104.725,124.12 103.255,125.14 101.59,125.86 L100.765,124.57 C102.34,123.925 103.72,122.995 104.89,121.765 C103.75,120.745 102.475,119.71 101.095,118.66 L102.13,117.655 Z M98.605,115.27 L110.635,115.27 L110.635,116.635 L99.97,116.635 L99.97,126.58 L111.1,126.58 L111.1,127.945 L98.605,127.945 L98.605,115.27 Z M121.835,121.84 C122.375,122.05 122.9,122.29 123.41,122.53 L123.41,120.28 L120.725,120.28 L120.725,121.63 C120.635,124.54 119.975,126.865 118.73,128.605 L117.71,127.54 C118.745,126.1 119.3,124.135 119.375,121.63 L119.375,115.855 C121.955,115.795 124.235,115.435 126.245,114.745 L126.92,115.96 C125.06,116.545 123.005,116.89 120.725,116.98 L120.725,118.99 L127.205,118.99 L127.205,120.28 L124.805,120.28 L124.805,123.235 C125.705,123.715 126.56,124.24 127.355,124.795 L126.59,125.95 C125.99,125.53 125.405,125.14 124.805,124.78 L124.805,128.575 L123.41,128.575 L123.41,124 C122.63,123.595 121.865,123.25 121.085,122.95 L121.835,121.84 Z M118.7,120.52 L118.7,121.93 C118.19,122.2 117.665,122.47 117.125,122.725 L117.125,126.97 C117.125,127.93 116.63,128.425 115.655,128.425 L114.305,128.425 L113.975,127.06 C114.395,127.12 114.785,127.15 115.16,127.15 C115.535,127.15 115.73,126.97 115.73,126.61 L115.73,123.325 C115.16,123.55 114.575,123.76 113.99,123.955 L113.645,122.515 C114.35,122.35 115.04,122.14 115.73,121.9 L115.73,118.705 L113.78,118.705 L113.78,117.34 L115.73,117.34 L115.73,114.745 L117.125,114.745 L117.125,117.34 L118.715,117.34 L118.715,118.705 L117.125,118.705 L117.125,121.33 C117.665,121.075 118.19,120.805 118.7,120.52 Z M130.965,114.85 C131.97,115.63 132.825,116.395 133.53,117.175 L132.495,118.225 C131.895,117.475 131.07,116.665 129.99,115.795 L130.965,114.85 Z M139.965,128.29 C139.11,128.29 138.18,128.275 137.175,128.26 C136.155,128.245 135.315,128.155 134.685,128.005 C134.04,127.825 133.485,127.465 133.035,126.955 C132.825,126.7 132.615,126.58 132.435,126.58 C132.12,126.58 131.565,127.27 130.785,128.665 L129.735,127.69 C130.5,126.445 131.19,125.665 131.79,125.35 L131.79,121.135 L129.75,121.135 L129.75,119.755 L133.155,119.755 L133.155,125.455 C133.23,125.515 133.305,125.59 133.38,125.68 C133.755,126.07 134.13,126.37 134.52,126.565 C134.985,126.775 135.69,126.895 136.62,126.925 C137.505,126.94 138.555,126.955 139.77,126.955 C140.445,126.955 141.135,126.94 141.855,126.94 C142.575,126.91 143.115,126.88 143.49,126.85 L143.145,128.29 L139.965,128.29 Z M134.04,119.725 L137.85,119.725 L137.85,116.905 C136.89,117.025 135.87,117.13 134.82,117.22 L134.52,115.9 C137.235,115.72 139.65,115.375 141.75,114.835 L142.23,116.125 C141.3,116.335 140.295,116.53 139.245,116.71 L139.245,119.725 L143.055,119.725 L143.055,121.015 L139.245,121.015 L139.245,126.385 L137.85,126.385 L137.85,121.015 L134.04,121.015 L134.04,119.725 Z M148.825,122.92 L148.825,124.315 L151.84,124.315 L151.84,122.92 L148.825,122.92 Z M151.84,125.62 L148.825,125.62 L148.825,126.43 L147.43,126.43 L147.43,118.945 L151.84,118.945 L151.84,117.64 L153.25,117.64 L153.25,118.945 L157.705,118.945 L157.705,126.385 L156.31,126.385 L156.31,125.62 L153.25,125.62 L153.25,128.59 L151.84,128.59 L151.84,125.62 Z M153.25,124.315 L156.31,124.315 L156.31,122.92 L153.25,122.92 L153.25,124.315 Z M156.31,121.675 L156.31,120.265 L153.25,120.265 L153.25,121.675 L156.31,121.675 Z M151.84,120.265 L148.825,120.265 L148.825,121.675 L151.84,121.675 L151.84,120.265 Z M158.86,115.72 L158.86,118.555 L157.48,118.555 L157.48,117.025 L147.46,117.025 L147.46,118.63 L146.08,118.63 L146.08,115.72 L151.69,115.72 C151.555,115.39 151.42,115.09 151.27,114.805 L152.785,114.565 C152.905,114.91 153.04,115.3 153.16,115.72 L158.86,115.72 Z M166.325,119.08 L170.255,119.08 L170.255,114.685 L171.725,114.685 L171.725,119.08 L175.445,119.08 L175.445,120.49 L171.725,120.49 L171.725,128.575 L170.255,128.575 L170.255,120.49 L166.325,120.49 L166.325,119.08 Z M163.595,114.82 C164.57,115.555 165.395,116.29 166.07,117.04 L165.095,118.03 C164.495,117.325 163.67,116.575 162.605,115.795 L163.595,114.82 Z M161.615,119.17 L165.08,119.17 L165.08,125.56 C165.56,125.17 166.055,124.72 166.58,124.225 L166.955,125.68 C165.995,126.58 164.96,127.39 163.865,128.095 L163.325,126.82 C163.58,126.61 163.715,126.355 163.715,126.055 L163.715,120.535 L161.615,120.535 L161.615,119.17 Z M183.975,128.5 L182.28,128.5 L181.95,127.105 C182.49,127.165 183,127.195 183.48,127.195 C183.795,127.195 183.96,127.03 183.96,126.7 L183.96,123.385 C182.52,123.475 180.99,123.55 179.34,123.625 L178.95,122.38 C179.4,122.335 179.82,122.245 180.18,122.125 C181.29,121.645 182.505,120.925 183.825,119.95 C182.625,120.04 181.335,120.13 179.985,120.205 L179.685,118.945 C180.03,118.915 180.345,118.825 180.645,118.69 C181.245,118.39 181.965,117.775 182.805,116.845 C181.62,116.89 180.375,116.92 179.055,116.92 L178.635,115.69 C182.925,115.69 186.555,115.39 189.51,114.82 L190.215,116.005 C188.625,116.35 186.735,116.59 184.575,116.74 C183.795,117.64 182.985,118.39 182.145,118.99 C183.195,118.93 184.245,118.87 185.295,118.795 C185.925,118.27 186.585,117.7 187.26,117.085 L188.58,117.73 C186.195,119.8 184.125,121.315 182.37,122.305 C184.455,122.17 186.27,122.005 187.815,121.825 C187.485,121.39 187.155,120.955 186.795,120.52 L187.845,119.86 C189.09,121.3 190.05,122.575 190.71,123.655 L189.57,124.45 C189.3,123.97 188.985,123.475 188.64,122.965 C187.65,123.085 186.57,123.19 185.385,123.28 L185.385,127.045 C185.385,128.005 184.905,128.5 183.975,128.5 Z M187.41,123.97 C188.91,125.05 190.155,126.13 191.16,127.21 L190.14,128.23 C189.27,127.195 188.04,126.085 186.465,124.9 L187.41,123.97 Z M181.425,124.075 L182.43,124.975 C181.41,126.19 180.165,127.255 178.665,128.17 L177.765,127 C179.205,126.16 180.435,125.185 181.425,124.075 Z M198.73,124.885 L198.73,126.25 C197.365,126.94 195.805,127.51 194.065,127.93 L193.9,126.505 C195.73,126.1 197.35,125.56 198.73,124.885 Z M196.12,114.64 L197.485,115.18 C196.765,116.965 196.045,118.42 195.325,119.53 C195.835,119.47 196.345,119.395 196.855,119.305 C197.11,118.825 197.38,118.3 197.65,117.745 L198.925,118.225 C197.725,120.505 196.72,122.185 195.895,123.265 C196.825,123.01 197.77,122.68 198.73,122.26 L198.73,123.565 C197.11,124.24 195.565,124.69 194.11,124.93 L193.735,123.61 C193.99,123.49 194.2,123.355 194.38,123.19 C194.845,122.695 195.43,121.84 196.135,120.625 C195.445,120.745 194.725,120.85 193.975,120.955 L193.615,119.65 C193.84,119.56 194.05,119.365 194.23,119.095 C194.95,117.76 195.58,116.275 196.12,114.64 Z M199.18,121.435 L198.865,120.175 C198.985,120.145 199.09,120.1 199.15,120.07 C199.6,119.74 200.185,118.885 200.89,117.535 L198.565,117.535 L198.565,116.17 L202.21,116.17 C202.03,115.69 201.835,115.24 201.625,114.82 L203.08,114.58 C203.275,115.06 203.47,115.585 203.65,116.17 L206.935,116.17 L206.935,117.535 L202.375,117.535 C201.805,118.615 201.295,119.44 200.845,120.04 C202.06,119.92 203.275,119.77 204.475,119.59 C204.175,119.17 203.875,118.765 203.575,118.36 L204.655,117.685 C205.645,118.96 206.41,120.085 206.95,121.045 L205.84,121.81 C205.66,121.465 205.45,121.12 205.24,120.76 C203.38,121.045 201.355,121.27 199.18,121.435 Z M200.29,121.9 L201.67,121.9 C201.595,123.805 201.355,125.2 200.965,126.085 C200.53,127.015 199.81,127.825 198.79,128.515 L197.89,127.39 C198.73,126.85 199.33,126.205 199.69,125.455 C200.035,124.735 200.23,123.55 200.29,121.9 Z M205.78,128.275 L204.82,128.275 C203.755,128.275 203.23,127.795 203.23,126.85 L203.23,121.735 L204.595,121.735 L204.595,126.58 C204.595,126.82 204.685,126.97 204.865,127 L205.705,127 C205.975,126.97 206.14,126.775 206.17,126.415 C206.215,126.01 206.245,125.425 206.245,124.675 L207.475,125.11 C207.475,126.55 207.355,127.42 207.145,127.75 C206.935,128.05 206.47,128.215 205.78,128.275 Z" id="path-5"></path>
    </defs>
    <g id="郫都区审计项目-" stroke="none" stroke-width="1" fill="none" fill-rule="evenodd">
        <g id="01-04登录页" transform="translate(-875.000000, -178.000000)">
            <g id="分组" transform="translate(815.000000, 134.000000)">
                <g id="分组-2" transform="translate(60.000000, 44.000000)">
                    <g id="分组2" transform="translate(69.000000, 12.000000)">
                        <path d="M87.8700927,47.8646402 C85.3936139,69.3225652 66.7303423,86 44.0745108,86 C19.7328306,86 0,66.7482442 0,43 C0,19.2517558 19.7328306,0 44.0745108,0 C67.1549788,0 86.0918198,17.3084613 87.9922026,39.3468721 L88,39.3468721 C88,40.9770681 86.6784651,42.298603 85.0482692,42.298603 L83.5640809,42.298603 C81.957214,42.298603 80.6502371,41.0146213 80.613159,39.4166667 L80.6081491,39.4166667 C78.0380036,25.8971231 63.193551,15.5277778 45.2657138,15.5277778 C25.5292164,15.5277778 9.52962396,28.0948961 9.52962396,43.5972222 C9.52962396,59.0995483 25.5292164,71.6666667 45.2657138,71.6666667 C63.193551,71.6666667 78.0380036,61.2973213 80.6081491,47.7777778 L80.6137852,47.7777778 C80.6595925,46.3934584 81.7962309,45.2852959 83.1916944,45.2852959 L85.2978272,45.2852959 C86.6932908,45.2852959 87.8299291,46.3934584 87.8757365,47.7777778 L87.8800261,47.7777778 C87.8788765,47.7879236 87.8777233,47.7980684 87.8765665,47.8082121 C87.8769692,47.8269728 87.8771715,47.8457829 87.8771715,47.8646402 L87.8700927,47.8646402 Z M44.4999,38.3834286 L44.4999,33.5822857 L41.743925,28.104 L32.436975,28.104 L32.436975,38.3834286 L44.4999,38.3834286 Z M57.911775,24.0817143 L67.9001,26.8211429 C69.263425,27.1594286 70.138575,28.4628571 69.95975,29.832 L66.121625,46.756 C65.924975,47.6028571 65.108475,48.1577143 64.243675,48.0342857 L59.243475,47.3194286 C58.3988,47.1988571 57.779525,46.468 57.80195,45.6211429 L57.955475,39.5685714 L60.478,41.9788571 L64.662275,42.6834286 L66.950775,30.3388571 L58.22515,28.5994286 L49.049875,48.3405714 C48.5272,48.9742857 47.745775,49.3411429 46.920075,49.3411429 L44.164675,49.3411429 L44.164675,52.0805714 L54.152425,52.0805714 C57.282725,52.0805714 59.8133,54.6874286 59.65805,57.8325714 C59.512575,60.776 56.95785,63.0365714 53.992575,63.0365714 L29.642475,63.0365714 C26.512175,63.0365714 23.9816,60.4291429 24.13685,57.2834286 C24.282325,54.3405714 26.83705,52.0805714 29.802325,52.0805714 L33.13905,52.0805714 L33.13905,49.3411429 L26.757125,49.3411429 C25.234525,49.3411429 24,48.1142857 24,46.6011429 L24,41.1234286 C24,39.6102857 25.23395,38.384 26.75655,38.384 L29.680425,38.384 L29.680425,28.104 C29.680425,26.5914286 30.91495,25.3651429 32.436975,25.3651429 L41.743925,25.3651429 C42.786975,25.3651429 43.74205,25.9514286 44.208375,26.88 L46.964925,32.3577143 L47.2024,38.3834286 L55.294375,24.8022857 C55.81705,24.2817143 56.52085,24 57.24305,24 C57.46615,24 57.6904,24.0268571 57.911775,24.0817143 Z" id="合并形状" fill="url(#linearGradient-1)"></path>
                        <mask id="mask-3" fill="white">
                            <use xlink:href="#path-2"></use>
                        </mask>
                        <g id="Clip2"></g>
                    </g>
                    <g id="成都市郫都区拆迁审计系统">
                        <use fill="#0BBA6B" xlink:href="#path-5"></use>
                        <use fill="url(#linearGradient-4)" xlink:href="#path-5"></use>
                    </g>
                </g>
            </g>
        </g>
    </g>
</svg>